<svg id="exportSVG" visibility="visible" xmlns="http://www.w3.org/2000/svg" xmlns:xlink="http://www.w3.org/1999/xlink" version="1.1" data-info="draw.ninja" data-name="paw" viewBox="0 0 120 120" width="120" height="120" style="position: fixed; top: 0px; left: 0px;"><defs id="defsExport"><filter id="filter0"><feGaussianBlur stdDeviation="0"></feGaussianBlur></filter><pattern id="patternImage" patternUnits="userSpaceOnUse" x="0" y="0" width="1" height="1" data-x="0" data-y="0" data-width="1" data-height="1" data-multx="1" data-multy="1" patternTransform="matrix(1,0,0,1,0,0)" data-transs="0" data-transf="0" data-source="patternImage" data-draw="1" fill="#B3B3B3" fill-opacity="1"></pattern><pattern id="pattern0" patternUnits="userSpaceOnUse" x="0" y="0" width="10" height="10" data-x="0" data-y="0" data-width="10" data-height="10" data-multx="1" data-multy="1" stroke="none" patternTransform="matrix(1,0,0,1,0,0)" data-transs="0" data-transf="0" data-source="Pattern 0" data-draw="1" fill="#B3B3B3" fill-opacity="1"><path transform="matrix(1,0,0,1,0,0)" d="M0 0 L5 0 L5 5 L0 5 L0 0 Z"></path></pattern><pattern id="pattern1" patternUnits="userSpaceOnUse" x="0" y="0" width="10" height="10" data-x="0" data-y="0" data-width="10" data-height="10" data-multx="1" data-multy="1" stroke="none" patternTransform="matrix(1,0,0,1,0,0)" data-transs="0" data-transf="0" data-source="Pattern 1" data-draw="1" fill="#B3B3B3" fill-opacity="1"><path transform="matrix(1,0,0,1,0,0)" d="M0 5 L5 0 L10 5 L5 10 L0 5 Z"></path></pattern><pattern id="pattern2" patternUnits="userSpaceOnUse" x="0" y="0" width="10" height="10" data-x="0" data-y="0" data-width="10" data-height="10" data-multx="1" data-multy="1" stroke="none" patternTransform="matrix(1,0,0,1,0,0)" data-transs="0" data-transf="0" data-source="Pattern 2" data-draw="1" fill="#B3B3B3" fill-opacity="1"><path transform="matrix(1,0,0,1,0,0)" d="M0 9 L5 1 L10 9 L0 9 Z"></path></pattern><pattern id="pattern3" patternUnits="userSpaceOnUse" x="0" y="0" width="10" height="10" data-x="0" data-y="0" data-width="10" data-height="10" data-multx="1" data-multy="1" stroke="none" patternTransform="matrix(1,0,0,1,0,0)" data-transs="0" data-transf="0" data-source="Pattern 3" data-draw="1" fill="#B3B3B3" fill-opacity="1"><path transform="matrix(1,0,0,1,0,0)" d="M0 5 C0 2.25 2.25 0 5 0 C7.75 0 10 2.25 10 5 C10 7.75 7.75 10 5 10 C2.25 10 0 7.75 0 5 Z"></path></pattern><pattern id="pattern4" patternUnits="userSpaceOnUse" x="0" y="0" width="10" height="10" data-x="0" data-y="0" data-width="10" data-height="10" data-multx="1" data-multy="1" stroke="none" patternTransform="matrix(1,0,0,1,0,0)" data-transs="0" data-transf="0" data-source="Pattern 4" data-draw="1" fill="#B3B3B3" fill-opacity="1"><path transform="matrix(1,0,0,1,0,0)" d="M0 5 L4 4 L5 0 L6 4 L10 5 L6 6 L5 10 L4 6 L0 5 Z"></path></pattern><pattern id="pattern5" patternUnits="userSpaceOnUse" x="0" y="0" width="10" height="10" data-x="0" data-y="0" data-width="10" data-height="10" data-multx="1" data-multy="1" stroke="none" patternTransform="matrix(1,0,0,1,0,0)" data-transs="0" data-transf="0" data-source="Pattern 5" data-draw="1" fill="#B3B3B3" fill-opacity="1"><path transform="matrix(1,0,0,1,0,0)" d="M5 10 C-5 2.75 3 -1.75 5 1 C7 -1.75 15 2.75 5 10 Z"></path></pattern><pattern id="pattern6" patternUnits="userSpaceOnUse" x="0" y="0" width="10" height="10" data-x="0" data-y="0" data-width="10" data-height="10" data-multx="1" data-multy="1" stroke="none" patternTransform="matrix(1,0,0,1,0,0)" data-transs="0" data-transf="0" data-source="Pattern 6" data-draw="1" fill="#B3B3B3" fill-opacity="1"><path transform="matrix(1,0,0,1,0,0)" d="M3 0 L7 0 L7 10 L3 10 L3 0 Z"></path></pattern><pattern id="pattern7" patternUnits="userSpaceOnUse" x="0" y="0" width="10" height="10" data-x="0" data-y="0" data-width="10" data-height="10" data-multx="1" data-multy="1" stroke="none" patternTransform="matrix(1,0,0,1,0,0)" data-transs="0" data-transf="0" data-source="Pattern 7" data-draw="1" fill="#B3B3B3" fill-opacity="1"><path transform="matrix(1,0,0,1,0,0)" d="M10 3 L10 7 L0 7 L0 3 L10 3 Z"></path></pattern><pattern id="pattern8" patternUnits="userSpaceOnUse" x="0" y="0" width="10" height="10" data-x="0" data-y="0" data-width="10" data-height="10" data-multx="1" data-multy="1" stroke="none" patternTransform="matrix(1,0,0,1,0,0)" data-transs="0" data-transf="0" data-source="Pattern 8" data-draw="1" fill="#B3B3B3" fill-opacity="1"><path transform="matrix(1,0,0,1,0,0)" d="M0 10 L3 3 L10 0 L7 7 L0 10 Z"></path></pattern><pattern id="pattern9" patternUnits="userSpaceOnUse" x="0" y="0" width="10" height="10" data-x="0" data-y="0" data-width="10" data-height="10" data-multx="1" data-multy="1" stroke="none" patternTransform="matrix(1,0,0,1,0,0)" data-transs="0" data-transf="0" data-source="Pattern 9" data-draw="1" fill="#B3B3B3" fill-opacity="1"><path transform="matrix(1,0,0,1,0,0)" d="M0 4 L10 4 L10 6 L0 6 L0 4 Z M4 10 L4 0 L6 0 L6 10 L4 10 Z"></path></pattern><linearGradient id="linearSystem" gradientUnits="objectBoundingBox" x1="0%" y1="50%" x2="100%" y2="50%" spreadMethod="pad"><stop offset="50%" stop-color="#D0D0D0" stop-opacity="1"></stop><stop offset="100%" stop-color="transparent" stop-opacity="1"></stop></linearGradient><linearGradient id="linearSystem1" gradientUnits="objectBoundingBox" x1="0%" y1="50%" x2="100%" y2="50%" spreadMethod="pad"><stop offset="30%" stop-color="#D0D0D0" stop-opacity="1"></stop><stop offset="100%" stop-color="transparent" stop-opacity="1"></stop></linearGradient><linearGradient id="linearSystem2" gradientUnits="objectBoundingBox" x1="0%" y1="50%" x2="50%" y2="50%" spreadMethod="repeat"><stop offset="30%" stop-color="#D0D0D0" stop-opacity="1"></stop><stop offset="100%" stop-color="transparent" stop-opacity="1"></stop></linearGradient><linearGradient id="linearSystem3" gradientUnits="objectBoundingBox" x1="0%" y1="50%" x2="50%" y2="50%" spreadMethod="reflect"><stop offset="30%" stop-color="#D0D0D0" stop-opacity="1"></stop><stop offset="100%" stop-color="transparent" stop-opacity="1"></stop></linearGradient><radialGradient id="radialSystem" gradientUnits="objectBoundingBox" r="0.5" cx="0.5" fx="0.5" cy="0.5" fy="0.5" spreadMethod="pad"><stop offset="50%" stop-color="#D0D0D0" stop-opacity="1"></stop><stop offset="100%" stop-color="transparent" stop-opacity="1"></stop></radialGradient><pattern id="patternSystem" patternUnits="userSpaceOnUse" x="0" y="0" width="6" height="8"><path stroke="#D0D0D0" stroke-width="5" fill="none" d="M0 0 L0 10"></path></pattern><linearGradient id="linear0" gradientUnits="objectBoundingBox" x1="0%" y1="50%" x2="100%" y2="50%" spreadMethod="pad"><stop offset="0%" stop-color="#FF8000" stop-opacity="1"></stop><stop offset="100%" stop-color="#FFFF00" stop-opacity="1"></stop></linearGradient><linearGradient id="linear1" gradientUnits="objectBoundingBox" x1="0%" y1="50%" x2="100%" y2="50%" spreadMethod="pad"><stop offset="0%" stop-color="#FFFF00" stop-opacity="1"></stop><stop offset="100%" stop-color="#FF8000" stop-opacity="1"></stop></linearGradient><linearGradient id="linearImport" gradientUnits="objectBoundingBox" x1="0%" y1="50%" x2="100%" y2="50%" spreadMethod="pad"><stop offset="0%" stop-color="#FFFFFF" stop-opacity="0.1"></stop><stop offset="100%" stop-color="#000000" stop-opacity="0.1"></stop></linearGradient><radialGradient id="radial0" gradientUnits="objectBoundingBox" r="0.5" cx="0.5" fx="0.5" cy="0.5" fy="0.5" spreadMethod="pad"><stop offset="0%" stop-color="#FF8000" stop-opacity="1"></stop><stop offset="100%" stop-color="#FFFF00" stop-opacity="1"></stop></radialGradient><radialGradient id="radial1" gradientUnits="objectBoundingBox" r="0.5" cx="0.5" fx="0.5" cy="0.5" fy="0.5" spreadMethod="pad"><stop offset="0%" stop-color="#FFFF00" stop-opacity="1"></stop><stop offset="100%" stop-color="#FF8000" stop-opacity="1"></stop></radialGradient><radialGradient id="radialImport" gradientUnits="objectBoundingBox" r="0.5" cx="0.5" fx="0.5" cy="0.5" fy="0.5" spreadMethod="pad"><stop offset="0%" stop-color="#FFFFFF" stop-opacity="0.1"></stop><stop offset="100%" stop-color="#000000" stop-opacity="0.1"></stop></radialGradient><filter id="filter2"><feGaussianBlur stdDeviation="0"></feGaussianBlur></filter><filter id="filter4"><feGaussianBlur stdDeviation="0"></feGaussianBlur></filter></defs><rect id="pageExport" x="0" y="0" width="120" height="120" fill="none" fill-opacity="0" stroke="none" stroke-width="0"></rect><g id="objectsExport" visibility="visible"><path id="path7" visibility="visible" stroke="#000000" stroke-width="2" stroke-opacity="1" stroke-linecap="round" stroke-linejoin="round" stroke-dasharray="none" marker-start="none" marker-end="none" fill="#e23c05" fill-rule="evenodd" fill-opacity="1" data-name="curve" data-title="outer1" deg="0" data-sw="2" data-grad="0" data-group="0" data-edit="1" filter="url(#filter2)" d="M4 60 C4 29.2 29.2 4 60 4 C90.8 4 116 29.2 116 60 C116 90.8 90.8 116 60 116 C29.2 116 4 90.8 4 60 Z " data-centerx="60" data-centery="60"></path><path id="path25" visibility="visible" stroke="#000000" stroke-width="2" stroke-opacity="0" stroke-linecap="round" stroke-linejoin="round" stroke-dasharray="none" marker-start="none" marker-end="none" fill="#fbdb4e" fill-rule="evenodd" fill-opacity="1" data-name="curve" data-title="outer3" deg="0" data-sw="2" data-grad="0" data-group="0" data-edit="1" filter="url(#filter4)" d="M8 60 C8 31.4 31.4 8 60 8 C88.6 8 112 31.4 112 60 C112 88.6 88.6 112 60 112 C31.4 112 8 88.6 8 60 Z " data-centerx="60" data-centery="60"></path><path id="path27" visibility="visible" stroke="#FFFFFF" stroke-width="2" stroke-opacity="1" stroke-linecap="round" stroke-linejoin="round" stroke-dasharray="none" marker-start="none" marker-end="none" fill="#FFFFFF" fill-rule="evenodd" fill-opacity="1" data-name="curve" data-title="curve" deg="0" data-sw="2" data-grad="0" data-group="0" data-edit="1" filter="none" d="M47 50 C53 42 67 42 73 50 C79 58 87 68 91 76 C97 94 81 102 71 96 C63 92 59 92 51 96 C39 100 23 96 29 76 C33 68 41 58 47 50 Z " data-centerx="60" data-centery="70.98"></path><path id="path29" visibility="visible" stroke="#FFFFFF" stroke-width="2" stroke-opacity="1" stroke-linecap="round" stroke-linejoin="round" stroke-dasharray="none" marker-start="none" marker-end="none" fill="#FFFFFF" fill-rule="evenodd" fill-opacity="1" data-name="curve" data-title="curve" deg="0" data-sw="2" data-grad="0" data-group="0" data-edit="1" filter="none" d="M20 48 C24 44 32 48 34 50 C40 54 38 62 34 66 C30 70 24 70 20 64 C18 60 16 52 20 48 Z " data-centerx="27.74" data-centery="57.54"></path><path id="path31" visibility="visible" stroke="#FFFFFF" stroke-width="2" stroke-opacity="1" stroke-linecap="round" stroke-linejoin="round" stroke-dasharray="none" marker-start="none" marker-end="none" fill="#FFFFFF" fill-rule="evenodd" fill-opacity="1" data-name="curve" data-title="curve" deg="0" data-sw="2" data-grad="0" data-group="0" data-edit="1" filter="none" d="M42 22 C48 16 54 22 56 28 C58 34 56 40 52 44 C40 52 36 44 36 36 C36 30 38 26 42 22 Z " data-centerx="46.39" data-centery="33.41"></path><path id="path32" visibility="visible" stroke="#FFFFFF" stroke-width="2" stroke-opacity="1" stroke-linecap="round" stroke-linejoin="round" stroke-dasharray="none" marker-start="none" marker-end="none" fill="#FFFFFF" fill-rule="evenodd" fill-opacity="1" data-name="curve" data-title="curve" deg="180" data-sw="2" data-grad="0" data-group="0" data-edit="1" filter="none" d="M78.785 22 C72.785 16 66.785 22 64.785 28 C62.785 34 64.785 40 68.785 44 C80.785 52 84.785 44 84.785 36 C84.785 30 82.785 26 78.785 22 Z " data-centerx="74.395" data-centery="33.41"></path><path id="path33" visibility="visible" stroke="#FFFFFF" stroke-width="0" stroke-opacity="0" stroke-linecap="round" stroke-linejoin="round" stroke-dasharray="none" marker-start="none" marker-end="none" fill="#ff3c60" fill-rule="evenodd" fill-opacity="1" data-name="curve" data-title="curve" deg="0" data-sw="0" data-grad="0" data-group="0" data-edit="1" filter="none" d="M47.924 49.778 C53.495 42.074 66.497 42.074 72.069 49.778 C77.641 57.481 85.07 67.111 88.784 74.814 C94.357 92.147 79.497 99.851 70.211 94.073 C62.782 90.221 59.068 90.221 51.638 94.073 C40.494 97.925 25.636 94.073 31.209 74.814 C34.923 67.111 42.352 57.481 47.924 49.778 Z " data-centerx="59.996" data-centery="69.98"></path><path id="path34" visibility="visible" stroke="#FFFFFF" stroke-width="2" stroke-opacity="0" stroke-linecap="round" stroke-linejoin="round" stroke-dasharray="none" marker-start="none" marker-end="none" fill="#ff3c60" fill-rule="evenodd" fill-opacity="1" data-name="curve" data-title="curve" deg="0" data-sw="2" data-grad="0" data-group="0" data-edit="1" filter="none" d="M20.068 47.581 C23.651 43.885 30.818 47.581 32.609 49.429 C37.985 53.125 36.192 60.516 32.609 64.212 C29.026 67.908 23.651 67.908 20.068 62.364 C18.276 58.668 16.485 51.276 20.068 47.581 Z " data-centerx="27.001" data-centery="56.395"></path><path id="path37" visibility="visible" stroke="#FFFFFF" stroke-width="2" stroke-opacity="1" stroke-linecap="round" stroke-linejoin="round" stroke-dasharray="none" marker-start="none" marker-end="none" fill="#FFFFFF" fill-rule="evenodd" fill-opacity="1" data-name="curve" data-title="curve" deg="180" data-sw="2" data-grad="0" data-group="0" data-edit="1" filter="none" d="M101.477 50 C97.477 46 89.477 50 87.477 52 C81.477 56 83.477 64 87.477 68 C91.477 72 97.477 72 101.477 66 C103.477 62 105.477 54 101.477 50 Z " data-centerx="93.737" data-centery="59.54"></path><path id="path38" visibility="visible" stroke="#FFFFFF" stroke-width="2" stroke-opacity="0" stroke-linecap="round" stroke-linejoin="round" stroke-dasharray="none" marker-start="none" marker-end="none" fill="#ff3c60" fill-rule="evenodd" fill-opacity="1" data-name="curve" data-title="curve" deg="180" data-sw="2" data-grad="0" data-group="0" data-edit="1" filter="none" d="M101.932 49.581 C98.349 45.885 91.182 49.581 89.391 51.429 C84.015 55.125 85.808 62.516 89.391 66.212 C92.974 69.908 98.349 69.908 101.932 64.364 C103.724 60.668 105.515 53.276 101.932 49.581 Z " data-centerx="94.999" data-centery="58.395"></path><path id="path39" visibility="visible" stroke="#FFFFFF" stroke-width="2" stroke-opacity="0" stroke-linecap="round" stroke-linejoin="round" stroke-dasharray="none" marker-start="none" marker-end="none" fill="#ff3c60" fill-rule="evenodd" fill-opacity="1" data-name="curve" data-title="curve" deg="0" data-sw="2" data-grad="0" data-group="0" data-edit="1" filter="none" d="M41.773 22.147 C47.548 16.967 53.322 22.147 55.247 27.327 C57.171 32.506 55.247 37.687 51.397 41.139 C39.85 48.047 36 41.139 36 34.234 C36 29.054 37.924 25.599 41.773 22.147 Z " data-centerx="45.999" data-centery="31.997"></path><path id="path40" visibility="visible" stroke="#FFFFFF" stroke-width="2" stroke-opacity="0" stroke-linecap="round" stroke-linejoin="round" stroke-dasharray="none" marker-start="none" marker-end="none" fill="#ff3c60" fill-rule="evenodd" fill-opacity="1" data-name="curve" data-title="curve" deg="180" data-sw="2" data-grad="0" data-group="0" data-edit="1" filter="none" d="M78.227 22.147 C72.452 16.967 66.678 22.147 64.753 27.327 C62.829 32.506 64.753 37.687 68.603 41.139 C80.15 48.047 84 41.139 84 34.234 C84 29.054 82.076 25.599 78.227 22.147 Z " data-centerx="74.001" data-centery="31.997"></path></g><g id="settings" visibility="hidden" data-dn0="primalDraw" data-dn1="#FAFAFA" data-dn2="#D2D2D2" data-dn3="18" data-dn4="#000000" data-dn5="#B3B3B3" data-dn6="1" data-dn7="1" data-dn8="2" data-dn9="round" data-dn10="round" data-dn11="none" data-dn12="none" data-dn13="none" data-dn14="evenodd" data-dn15="10" data-dn16="1" data-dn17="120" data-dn18="120" data-dn19="2" data-dn20="1" data-dn21="1" data-dn22="1" data-dn23="41" data-dn24="path7,path25,path27,path29,path31,path32,path33,path34,path37,path38,path39,path40" data-dn25="2" data-dn26="url(#linear0)" data-dn27="url(#linear1)" data-dn28="url(#radial0)" data-dn29="url(#radial1)" data-dn30="#FF8000" data-dn31="#FFFF00" data-dn32="#000000" data-dn33="1" data-dn34="5" data-dn35="13" data-dn36="pattern10,pattern10,pattern10,pattern10,pattern10,pattern10,pattern10,pattern10,pattern10,pattern10,pattern10,pattern10,pattern10,pattern10,pattern10,pattern10,pattern10,pattern10,pattern10,pattern10,pattern10,pattern10,pattern10,pattern10,pattern10,pattern10,pattern10,pattern10,pattern10,pattern10,pattern10,pattern10,pattern10,pattern10,pattern10,pattern10,pattern10,pattern10,pattern10,pattern10,pattern10,pattern10,pattern10,pattern10,pattern10,pattern10,pattern10,pattern10,pattern10,pattern10,pattern10,pattern10,pattern10,pattern10,pattern10,pattern10,pattern10,pattern10,pattern10,pattern10,pattern10,pattern10,pattern10,pattern10,pattern10,pattern10,pattern10,pattern10" data-dn37="3" data-dn38="78"></g></svg>